inDegrees=no
num_controls=7
num_derivatives=13
num_iterations=165
num_multipliers=7
num_parameters=0
num_slacks=7
num_states=26
objective=6.211593
objective_accelerations=0.722022
objective_balance=0.050520
objective_effort=0.623905
objective_height=4.767956
objective_ligament=0.047190
solver_duration=1790.726575
status=Solve_Succeeded
success=true
DataType=double
version=3
OpenSimVersion=4.4-2022-07-23-0e9fedc
endheader
time	/jointset/ground_pelvis/pelvis_tilt/value	/jointset/ground_pelvis/pelvis_tx/value	/jointset/ground_pelvis/pelvis_ty/value	/jointset/hip_l/hip_flexion_l/value	/jointset/hip_l/hip_adduction_l/value	/jointset/hip_l/hip_rotation_l/value	/jointset/back/lumbar_extension/value	/jointset/patellofemoral_l/patellar_flexion_l/value	/jointset/knee_l/knee_flexion_l/value	/jointset/knee_l/knee_adduction_l/value	/jointset/knee_l/knee_rotation_l/value	/jointset/ankle_l/ankle_angle_l/value	/jointset/subtalar_l/subtalar_angle_l/value	/jointset/ground_pelvis/pelvis_tilt/speed	/jointset/ground_pelvis/pelvis_tx/speed	/jointset/ground_pelvis/pelvis_ty/speed	/jointset/hip_l/hip_flexion_l/speed	/jointset/hip_l/hip_adduction_l/speed	/jointset/hip_l/hip_rotation_l/speed	/jointset/back/lumbar_extension/speed	/jointset/patellofemoral_l/patellar_flexion_l/speed	/jointset/knee_l/knee_flexion_l/speed	/jointset/knee_l/knee_adduction_l/speed	/jointset/knee_l/knee_rotation_l/speed	/jointset/ankle_l/ankle_angle_l/speed	/jointset/subtalar_l/subtalar_angle_l/speed	/forceset/tau_hip_flexion_l	/forceset/tau_hip_adduction_l	/forceset/tau_hip_rotation_l	/forceset/tau_knee_flexion_l	/forceset/tau_ankle_angle_l	/forceset/tau_subtalar_angle_l	/forceset/tau_lumbar_extension	lambda_cid13_p0	lambda_cid13_p1	lambda_cid13_p2	lambda_cid13_p3	lambda_cid13_p4	lambda_cid13_p5	lambda_cid14_p0	/jointset/ground_pelvis/pelvis_tilt/accel	/jointset/ground_pelvis/pelvis_tx/accel	/jointset/ground_pelvis/pelvis_ty/accel	/jointset/hip_l/hip_flexion_l/accel	/jointset/hip_l/hip_adduction_l/accel	/jointset/hip_l/hip_rotation_l/accel	/jointset/back/lumbar_extension/accel	/jointset/patellofemoral_l/patellar_flexion_l/accel	/jointset/knee_l/knee_flexion_l/accel	/jointset/knee_l/knee_adduction_l/accel	/jointset/knee_l/knee_rotation_l/accel	/jointset/ankle_l/ankle_angle_l/accel	/jointset/subtalar_l/subtalar_angle_l/accel	gamma_cid13_p0	gamma_cid13_p1	gamma_cid13_p2	gamma_cid13_p3	gamma_cid13_p4	gamma_cid13_p5	gamma_cid14_p0
1.5	-0.08679108495451576	-0.05707270208997094	0.8225724340421433	0.8785600987565093	-0.3156049166758415	-0.126261302950307	-0.8173191847802445	0.8215182456425193	0.8215182456424023	-0.08032345843088852	-0.1742580412897901	0.09034163081913807	0.008755538084886222	0.5675177727265267	0.3076419538216138	0.5460876994553175	-2.51417729768207	0.05695711189683374	-0.6165601378401274	0.8240688378352334	-2.110517302400883	-2.110517302400514	-0.2275530666784734	0.007781888084436757	-0.2906490444236161	-0.03202575386654891	-0.2620681929042483	0.01316770182365474	-0.00712473063198998	-0.2114013477594242	0.1137558164929694	0.05055985327422718	0.3173483873250603	-5.15093319481293	-22.29179580346903	4.510901419595872	-14.83620835106776	-665.1755634006536	-76.31892408029998	-13.65636873883643	0.3006152667279475	0.9523945050777782	-0.7158644587981731	-1.100994868290238	0.5140744913753953	-0.4319520596937826	2.340559627839868	-1.053908385158221	-1.053908385158224	-0.1475030133397615	0.1443369468346428	-0.2416940046241229	0.4832800321252324	5.099024995416126e-07	4.354553447163543e-07	-2.652889012969823e-06	-2.499847267277673e-07	6.2312462158267e-07	-4.501539748011052e-08	4.041951616706516e-07
1.51	-0.08110124486442923	-0.0539488729013864	0.8279964544713072	0.853365245164844	-0.3150110362265047	-0.1324460476040286	-0.8089630760874277	0.8003626660787058	0.8003626660787002	-0.08261018178267207	-0.1741731279943983	0.08742330602551855	0.008457900758445084	0.5703605398500247	0.3170966515040332	0.5386023037388082	-2.524471013673744	0.06182604061724798	-0.6202995670852189	0.8470469827491321	-2.120308681145663	-2.120308681145494	-0.2297768783181088	0.009235732560403663	-0.2929326844976369	-0.02747094852238611	-0.2524827638172081	0.01269244496050634	-0.006813848371181416	-0.2078482471774618	0.1128503030599413	0.0497520346106954	0.3086114085313124	-5.113782109215323	-22.03547770005663	4.570567724359867	-14.56971420904672	-659.1551793491213	-76.24576045165564	-14.44804001574196	0.2627007070203708	0.9378787619777752	-0.7818548597250372	-0.945133647636185	0.4746023447591395	-0.3311338650428343	2.260554226375232	-0.8983459309927048	-0.8983459310228759	-0.2575656228467245	0.1506473343014693	-0.2091932984230751	0.4463814064411858	5.127093688111031e-07	5.888734265510633e-07	-2.559634689323207e-06	-2.29467488685698e-07	6.562538318923996e-07	4.02769026703615e-08	4.103148800521561e-07
1.52	-0.07538565844874674	-0.05073132246354717	0.8333422253969763	0.8280771396766115	-0.3143682064334972	-0.1386654256519281	-0.8003803634848329	0.7791178540651268	0.7791178540651518	-0.08491869232759131	-0.1740727284268317	0.0844846459732146	0.008206771609621157	0.5726670378479605	0.3263862036725528	0.5304377987563802	-2.532827676986611	0.06674698063317254	-0.623486816655362	0.869389619791469	-2.128363792364636	-2.128363792364669	-0.231910505300645	0.01087914248931139	-0.2947160961569363	-0.02272411834305813	-0.2428973347304467	0.01221718809697703	-0.006502966110654131	-0.2042951465955675	0.1119447896268097	0.04894421594671178	0.2998744297374277	-5.07590364077415	-21.77968020522525	4.630768614283351	-14.35184751974752	-653.1629883417727	-76.25105806859321	-15.22536720683191	0.1933614416152601	0.919365402297973	-0.8516863119819034	-0.7135843325290537	0.5244767504772865	-0.3215161247043731	2.213458053527503	-0.7066548799971775	-0.7066548799971759	-0.1294660819200557	0.1822500374226099	-0.141648321679642	0.5216849991582208	5.152076891555645e-07	7.305575742086218e-07	-2.473770348261508e-06	-2.127145063862238e-07	6.931943489331593e-07	1.23101356948542e-07	4.150610162293079e-07
1.53	-0.06964966481995145	-0.0474218156302828	0.8386030480083342	0.8027150755732293	-0.3136760093694308	-0.1449144961959871	-0.7915776647079898	0.7578010996865462	0.7578010996865133	-0.08724781789031338	-0.1739553506520887	0.08153058045966849	0.008003946138078642	0.574437731457437	0.3354758737352906	0.5216193660396684	-2.539247382107046	0.07169313979616965	-0.6262505677758586	0.891025518876378	-2.134685280018355	-2.134685280018276	-0.2338895684083758	0.01261502827843245	-0.2960135284162903	-0.01781709597197592	-0.2333002817041102	0.01162690362857147	-0.006151462339875697	-0.2008269029393602	0.110872241189264	0.0478983075098123	0.2910515911183597	-5.117793712446264	-21.40036153873243	4.664247614025497	-13.93641557450033	-647.3630233332365	-76.07773324256577	-15.98785048482842	0.1548745015966572	0.8978357952926846	-0.9128741470582871	-0.5554376981577112	0.4799746328803814	-0.2418656757794913	2.11996333091676	-0.5497092288839024	-0.5497092288670088	-0.2282866861316708	0.1715740799658269	-0.1112368888069125	0.4789187756939809	5.173781762671823e-07	8.59774416802958e-07	-2.395757863696281e-06	-1.999610458132567e-07	7.341843793756385e-07	2.033037249874127e-07	4.183477213143347e-07
